<?xml version="1.0" encoding="UTF-8" standalone="no"?>
<!-- Created with Inkscape (http://www.inkscape.org/) -->

<svg
   xmlns:dc="http://purl.org/dc/elements/1.1/"
   xmlns:cc="http://creativecommons.org/ns#"
   xmlns:rdf="http://www.w3.org/1999/02/22-rdf-syntax-ns#"
   xmlns:svg="http://www.w3.org/2000/svg"
   xmlns="http://www.w3.org/2000/svg"
   xmlns:sodipodi="http://sodipodi.sourceforge.net/DTD/sodipodi-0.dtd"
   xmlns:inkscape="http://www.inkscape.org/namespaces/inkscape"
   version="1.1"
   id="svg2"
   xml:space="preserve"
   width="284.33279"
   height="108.26801"
   viewBox="0 0 284.3328 108.26799"
   sodipodi:docname="bootlin-logo-white.svg"
   inkscape:version="0.92.2 (5c3e80d, 2017-08-06)"
   inkscape:export-filename="/home/mike/intragit/sales/logos/logo/bootlin-logo-white.png"
   inkscape:export-xdpi="67.526505"
   inkscape:export-ydpi="67.526505"><metadata
     id="metadata8"><rdf:RDF><cc:Work
         rdf:about=""><dc:format>image/svg+xml</dc:format><dc:type
           rdf:resource="http://purl.org/dc/dcmitype/StillImage" /><dc:title /></cc:Work></rdf:RDF></metadata><defs
     id="defs6"><clipPath
       clipPathUnits="userSpaceOnUse"
       id="clipPath36"><path
         d="m 1487.04,776.914 c 72.39,27.117 125.32,-15.066 125.32,-15.066 -43.99,-98.914 -115,-150.703 -115,-150.703 -21.82,84.617 -10.32,165.769 -10.32,165.769"
         id="path34"
         inkscape:connector-curvature="0"
         style="clip-rule:evenodd" /></clipPath><clipPath
       clipPathUnits="userSpaceOnUse"
       id="clipPath42"><path
         d="m 1481.49,608.77 h 132.461 V 788.809 H 1481.49 Z"
         id="path40"
         inkscape:connector-curvature="0" /></clipPath><clipPath
       clipPathUnits="userSpaceOnUse"
       id="clipPath48"><path
         d="m 1556.85,670.953 h -70.12 c -6.29,59.379 0.31,105.961 0.31,105.961 17.61,6.598 34.07,9.094 48.89,9.094 46.12,0 76.43,-24.16 76.43,-24.16 -16.44,-36.961 -36.64,-67.336 -55.51,-90.895"
         id="path46"
         inkscape:connector-curvature="0" /></clipPath><clipPath
       clipPathUnits="userSpaceOnUse"
       id="clipPath60"><path
         d="m 1487.04,776.914 c 72.39,27.117 125.32,-15.066 125.32,-15.066 -43.99,-98.914 -115,-150.703 -115,-150.703 -21.82,84.617 -10.32,165.769 -10.32,165.769"
         id="path58"
         inkscape:connector-curvature="0"
         style="clip-rule:evenodd" /></clipPath><clipPath
       clipPathUnits="userSpaceOnUse"
       id="clipPath66"><path
         d="m 1481.49,608.77 h 132.461 V 788.809 H 1481.49 Z"
         id="path64"
         inkscape:connector-curvature="0" /></clipPath><clipPath
       clipPathUnits="userSpaceOnUse"
       id="clipPath72"><path
         d="m 1497.36,611.145 c -5.29,20.507 -8.62,40.812 -10.63,59.808 h 70.12 c -31.63,-39.488 -59.49,-59.808 -59.49,-59.808"
         id="path70"
         inkscape:connector-curvature="0" /></clipPath></defs><sodipodi:namedview
     pagecolor="#ffffff"
     bordercolor="#666666"
     borderopacity="1"
     objecttolerance="10"
     gridtolerance="10"
     guidetolerance="10"
     inkscape:pageopacity="0"
     inkscape:pageshadow="2"
     inkscape:window-width="1853"
     inkscape:window-height="1052"
     id="namedview4"
     showgrid="false"
     inkscape:zoom="2.6532412"
     inkscape:cx="124.34017"
     inkscape:cy="49.795611"
     inkscape:window-x="67"
     inkscape:window-y="0"
     inkscape:window-maximized="1"
     inkscape:current-layer="g12"
     inkscape:measure-start="0,0"
     inkscape:measure-end="0,0"
     fit-margin-top="15"
     fit-margin-left="25"
     fit-margin-right="25"
     fit-margin-bottom="25" /><g
     id="g10"
     inkscape:groupmode="layer"
     inkscape:label="ink_ext_XXXXXX"
     transform="matrix(1.3333333,0,0,-1.3333333,6.5448005,119.80707)"><g
       id="g12"
       transform="scale(0.1)"><g
         id="g853"><path
           inkscape:connector-curvature="0"
           id="path14"
           style="fill:#ffffff;fill-opacity:1;fill-rule:nonzero;stroke:none"
           d="m 333.832,334.824 c 30.68,25.567 42.609,59.649 42.043,96.578 -0.57,14.77 -3.98,30.106 -8.52,42.039 -16.476,39.196 -56.812,60.782 -97.144,60.782 -51.695,-2.27 -90.328,-37.489 -90.328,-87.485 v -44.875 c 0,-55.672 43.746,-88.621 95.437,-88.621 21.59,1.699 42.039,8.516 58.512,21.582 z m -7.953,-50.554 0.57,0.566 c -17.609,-7.387 -36.929,-10.793 -54.535,-10.793 -34.086,0 -73.851,14.766 -93.168,49.988 v -26.695 c 0,-12.5 -6.246,-19.887 -19.312,-19.887 -13.067,0 -21.02,7.387 -21.02,19.887 v 343.125 c 0,26.125 41.469,26.125 41.469,0 V 527.406 c 17.043,30.11 53.969,46.016 92.031,46.016 85.211,0 143.152,-60.785 145.43,-141.453 1.703,-65.895 -29.539,-122.133 -91.465,-147.699" /><path
           inkscape:connector-curvature="0"
           id="path16"
           style="fill:#ffffff;fill-opacity:1;fill-rule:nonzero;stroke:none"
           d="m 619.547,535.93 c -10.797,0 -21.586,-1.707 -30.109,-3.977 -47.719,-12.5 -75.555,-56.808 -75.555,-107.933 0,-25.563 7.953,-52.262 24.996,-72.157 19.883,-23.855 49.988,-37.488 81.234,-37.488 30.68,0 61.922,14.773 81.805,37.488 15.902,19.321 24.996,46.594 24.996,71.02 0,51.691 -27.836,96.57 -76.121,109.07 -9.094,2.27 -20.457,3.977 -31.246,3.977 z M 506.492,326.875 c -25.558,30.105 -36.355,66.465 -34.652,109.07 5.683,63.059 42.609,115.891 105.098,133.504 13.632,3.973 28.968,5.114 43.175,5.114 13.633,0 27.27,-1.141 42.039,-5.114 61.918,-17.613 100.547,-69.879 105.661,-133.504 2.277,-42.605 -9.086,-78.965 -34.083,-109.07 -27.835,-33.516 -68.742,-51.133 -113.617,-51.133 -45.445,0 -85.781,17.617 -113.621,51.133" /><path
           inkscape:connector-curvature="0"
           id="path18"
           style="fill:#ffffff;fill-opacity:1;fill-rule:nonzero;stroke:none"
           d="m 965.469,535.93 c -10.797,0 -21.586,-1.707 -30.11,-3.977 -47.718,-12.5 -75.554,-56.808 -75.554,-107.933 0,-25.563 7.953,-52.262 24.996,-72.157 19.883,-23.855 49.988,-37.488 81.234,-37.488 30.68,0 61.925,14.773 81.805,37.488 15.91,19.321 24.99,46.594 24.99,71.02 0,51.691 -27.83,96.57 -76.115,109.07 -9.094,2.27 -20.453,3.977 -31.246,3.977 z M 852.418,326.875 c -25.563,30.105 -36.359,66.465 -34.652,109.07 5.679,63.059 42.605,115.891 105.093,133.504 13.633,3.973 28.977,5.114 43.176,5.114 13.633,0 27.27,-1.141 42.045,-5.114 61.92,-17.613 100.54,-69.879 105.66,-133.504 2.27,-42.605 -9.09,-78.965 -34.09,-109.07 -27.83,-33.516 -68.74,-51.133 -113.615,-51.133 -45.445,0 -85.781,17.617 -113.617,51.133" /><path
           inkscape:connector-curvature="0"
           id="path20"
           style="fill:#ffffff;fill-opacity:1;fill-rule:nonzero;stroke:none"
           d="m 1294.35,570.016 c 25.56,0 25.56,-35.793 0,-35.793 h -61.92 V 380.84 c 0,-32.383 5.11,-66.465 43.74,-66.465 8.52,0 21.02,2.844 26.7,6.25 23.86,13.633 42.61,-19.883 17.04,-34.082 -14.2,-7.957 -28.41,-9.656 -43.74,-9.656 -68.17,0 -84.65,49.988 -84.65,103.953 v 153.383 h -37.49 c -26.7,0 -25,35.793 0,35.793 h 37.49 v 65.898 c 0,27.266 40.91,26.699 40.91,0 v -65.898 h 61.92" /><path
           inkscape:connector-curvature="0"
           id="path22"
           style="fill:#ffffff;fill-opacity:1;fill-rule:nonzero;stroke:none"
           d="m 1424.99,297.898 c 0,-10.789 -9.09,-19.312 -20.46,-19.312 -12.49,0 -21.01,8.523 -21.01,19.312 v 340.856 c 0,10.793 8.52,19.312 21.01,19.312 11.37,0 20.46,-8.519 20.46,-19.312 V 297.898" /><path
           inkscape:connector-curvature="0"
           id="path848"
           d="m 1498.25,551.27 c 0,24.421 41.48,24.996 41.48,0.566 V 295.625 c 0,-24.988 -41.48,-24.426 -41.48,0 V 551.27"
           style="fill:#ffffff;fill-opacity:1;fill-rule:nonzero;stroke:none" /><path
           inkscape:connector-curvature="0"
           id="path26"
           style="fill:#ffffff;fill-opacity:1;fill-rule:nonzero;stroke:none"
           d="m 1854.43,447.875 c 0,52.266 -42.04,88.625 -88.04,88.625 -55.11,0 -106.81,-45.449 -106.81,-107.367 V 297.336 c 0,-12.5 -7.38,-19.887 -20.45,-19.887 -13.07,0 -21.58,7.387 -21.58,19.887 v 254.5 c 0,26.133 40.9,26.699 40.9,-0.566 v -35.223 c 20.45,41.469 64.19,59.082 108.5,59.082 65.9,0 128.96,-45.445 128.96,-127.254 V 297.336 c 0,-12.5 -7.39,-19.887 -20.45,-19.887 -12.5,0 -21.03,7.387 -21.03,19.887 v 150.539" /><path
           inkscape:connector-curvature="0"
           id="path855"
           d="m 1497.2164,611.57262 c -0.032,0.0882 -0.5185,2.03743 -1.0803,4.33155 -6.307,25.7574 -10.2405,54.04367 -11.6186,83.5508 -0.4101,8.78043 -0.5026,13.15183 -0.5053,23.87166 0,14.35826 0.326,23.81333 1.2797,36.70589 0.4369,5.90588 1.4445,15.97471 1.6731,16.71875 0.092,0.29987 0.3701,0.41022 4.7997,1.90549 26.9296,9.09051 54.3976,9.80752 81.1123,2.11731 13.8428,-3.98484 28.006,-10.65098 38.136,-17.94927 l 1.2376,-0.89166 -0.7668,-1.68828 c -8.5079,-18.73282 -17.1088,-34.64829 -27.9965,-51.80593 -20.5725,-32.41976 -46.8686,-63.38327 -74.0756,-87.22378 -4.2493,-3.72352 -11.7031,-9.80296 -12.019,-9.80296 -0.065,0 -0.1439,0.072 -0.1763,0.16042 z"
           style="fill:#ff631a;fill-opacity:1;stroke-width:0.12834226" /></g></g></g></svg>