<svg xmlns="http://www.w3.org/2000/svg" viewBox="0 0 520.3 475.9" version="1">
  <g opacity=".2">
    <g transform="translate(-57.384 -224.84)">
      <ellipse cx="383.4" cy="268" fill="#6d7dd2" stroke="#000" stroke-width="11.7" ry="178.3" rx="221.7" transform="matrix(.68562 0 0 1.13145 -15.245 128.498)" overflow="visible"/>
      <path fill="#6d7dd2" fill-rule="evenodd" stroke="#000" stroke-width="10.3" d="M269 391.4c-16.3 36.7-31.3 51.2-54.3 70.2-7.2-29.2-10-42-6-77.8 14.7-4.2 31.2-11.5 60.3 7.6z"/>
      <path fill-rule="evenodd" d="M394.2 380.3c8.6 14.6 52.2 58 54 117.6 1.3 30-50.3-66-57 1 4.2-34 0-69 3-119zm-293.5-1.8c-7 16.4-42 64.8-43.3 131.5-1 34 40.3-72.8 45.8 1.7-3.4-38 0-76.7-2.5-133.2z"/>
      <path fill="#6d7dd2" stroke="#000" stroke-width="9.7" d="M225.8 628.5c4.8 19-19.5 27-47.7 31.7-36 6-59-9.8-45-41.5 13-30 36.6-53.7 57.3-33.4 21.4 21 14 15.7 36.3 43.2z" overflow="visible"/>
      <path fill="#6d7dd2" stroke="#000" stroke-width="10.3" d="M254 639.5c-5.2 20.3 20.7 28.8 50.6 33.7 38.6 6.4 63.4-10.4 48.8-44-13.8-31.8-39-57-61-35.5-22.6 22.3-14.8 16.7-38.4 45.8z" overflow="visible"/>
      <path d="M175 352.3c-5-1.7-7.6-6.2-8-13.6-.3-10.7 4-17.2 12-17.5 5-.2 9.5 3 11 7.6 1 3 1.5 8.4 1 11.5-1.5 10-7.8 14.8-16 12zm128.8 1.3c-5-1.7-7.6-6.2-8-13.6-.4-10.7 4-17.2 12-17.5 5-.2 9.5 3 11 7.6 1 3 1.5 9 1 12-1.6 10-8 15-16 12z"/>
    </g>
    <g transform="translate(-57.384 -224.84)">
      <ellipse cx="383.4" cy="268" fill="#6d7dd2" stroke="#000" stroke-width="16" ry="178.3" rx="221.7" transform="matrix(-.42486 0 0 .70114 622.69 357.98)" overflow="visible"/>
      <path fill="#6d7dd2" fill-rule="evenodd" stroke="#000" stroke-width="8.8" d="M446.6 521c10 22.6 19.3 31.7 33.6 43.4 4.5-18 6.2-26 3.8-48.2-9.2-2.6-19.4-7.2-37.4 4.7z"/>
      <path fill-rule="evenodd" d="M369 514c-5.4 9-32.4 36-33.5 73-.8 18.7 31-40.5 35.4.8-3-21 0-42.5-2-73.8zm181.8-1c4.3 10 26 40 27 81.4.6 21-25-45-28.5 1 2-23.5 0-47.5 1.5-82.5z"/>
      <path fill="#6d7dd2" stroke="#000" stroke-width="8.8" d="M473.4 667.8c-3 12 12 16.8 29.5 19.7 22 3.7 37-6 28-25.7-8-18.6-23-33.3-36-20.7-13 13-8.7 10-22.4 27zm-17.6 7c3.3 12.4-12.8 17.7-31.3 20.7-24 4-39.3-6.4-30.3-27.3 8.6-19.7 24.2-35.4 37.8-22 14 14 9.2 10.4 23.8 28.5z" overflow="visible"/>
      <path d="M504.8 496.7c3-1 4.7-4 5-8.5.2-6.6-2.6-10.6-7.5-10.8-3 0-6 1.8-6.8 4.7-.7 2-1 6-.6 8 0 6.3 4 9 9 7.5zm-79.8.8c3-1 4.7-4 5-8.4.2-6-2.6-10-7.5-10-3 0-6 2-6.8 4.7-.7 1.8-1 5-.6 7 1 6.4 5 9.3 10 7.6z"/>
    </g>
  </g>
</svg>